<svg xmlns="http://www.w3.org/2000/svg" width="512" height="512" fill="none" viewBox="0 0 512 512" id="b">
  <path fill="#19A8EB" fill-rule="evenodd" d="M63.4948 176.258C56.9222 145.821 65.4654 112.776 89.1244 89.1244H89.122C112.776 65.4678 145.823 56.9246 176.26 63.4948C193.139 37.3248 222.547 20 256 20C289.453 20 318.861 37.3248 335.74 63.4924C366.177 56.9246 399.221 65.4678 422.878 89.122L342.741 169.259C339.54 163.958 335.349 159.344 330.168 155.416C316.611 145.139 298.024 140 274.408 140H156V356.002L89.1244 422.878C65.4678 399.221 56.9246 366.177 63.4948 335.74C37.3248 318.861 20 289.453 20 256C20 222.547 37.3224 193.139 63.4948 176.258ZM257.024 230.528H228.816V197.728H257.024C263.584 197.728 268.395 199.149 271.456 201.992C274.736 204.616 276.376 208.771 276.376 214.456C276.376 219.923 274.736 223.968 271.456 226.592C268.395 229.216 263.584 230.528 257.024 230.528Z" clip-rule="evenodd"></path>
  <path fill="#0173D3" d="M261.944 313.84C268.504 313.84 273.315 312.637 276.376 310.232C279.656 307.608 281.296 303.453 281.296 297.768C281.296 286.616 274.845 281.04 261.944 281.04H230.961H228.816V283.185V313.84H261.944Z"></path>
  <path fill="#0173D3" d="M448.508 176.26C455.075 145.823 446.532 112.776 422.878 89.122L342.741 169.259C347.917 177.829 350.504 188.193 350.504 200.352C350.504 213.909 346.896 225.389 339.68 234.792C332.683 243.976 323.28 250.099 311.472 253.16C325.467 256.44 336.291 263.219 343.944 273.496C351.816 283.555 355.752 295.253 355.752 308.592C355.752 328.928 348.973 344.672 335.416 355.824C322.077 366.757 302.835 372.224 277.688 372.224H156V356.002L89.1244 422.878C112.779 446.532 145.823 455.075 176.26 448.508C193.139 474.675 222.547 492 256 492C289.453 492 318.861 474.675 335.74 448.508C366.177 455.075 399.221 446.532 422.878 422.878C446.532 399.221 455.075 366.177 448.508 335.74C474.675 318.861 492 289.453 492 256C492 222.547 474.675 193.139 448.508 176.26Z"></path>
  <path fill="#19A8EB" d="M343.944 273.496C336.291 263.219 325.467 256.44 311.472 253.16C323.28 250.099 332.683 243.976 339.68 234.792C346.896 225.389 350.504 213.909 350.504 200.352C350.504 188.193 347.917 177.829 342.741 169.259L230.961 281.04H261.944C274.845 281.04 281.296 286.616 281.296 297.768C281.296 303.453 279.656 307.608 276.376 310.232C273.315 312.637 268.504 313.84 261.944 313.84H228.816V283.185L156 356.002V372.224H277.688C302.835 372.224 322.077 366.757 335.416 355.824C348.973 344.672 355.752 328.928 355.752 308.592C355.752 295.253 351.816 283.555 343.944 273.496Z"></path>
  <path fill="#0173D3" fill-rule="evenodd" d="M330.168 155.416C316.611 145.139 298.024 140 274.408 140H156V356.002L228.816 283.185V281.04H230.961L342.741 169.259C339.54 163.958 335.349 159.344 330.168 155.416ZM257.024 230.528H228.816V197.728H257.024C263.584 197.728 268.395 199.149 271.456 201.992C274.736 204.616 276.376 208.771 276.376 214.456C276.376 219.923 274.736 223.968 271.456 226.592C268.395 229.216 263.584 230.528 257.024 230.528Z" clip-rule="evenodd"></path>
</svg>